Coordinates
version=1
nRows=16
nColumns=40
inDegrees=yes

Units are S.I. units (second, meters, Newtons, ...)
Angles are in degrees.

endheader
time	pelvis_tilt	pelvis_list	pelvis_rotation	pelvis_tx	pelvis_ty	pelvis_tz	hip_flexion_r	hip_adduction_r	hip_rotation_r	knee_angle_r	knee_angle_r_beta	ankle_angle_r	subtalar_angle_r	mtp_angle_r	hip_flexion_l	hip_adduction_l	hip_rotation_l	knee_angle_l	knee_angle_l_beta	ankle_angle_l	subtalar_angle_l	mtp_angle_l	lumbar_extension	lumbar_bending	lumbar_rotation	arm_flex_r	arm_add_r	arm_rot_r	elbow_flex_r	pro_sup_r	wrist_flex_r	wrist_dev_r	arm_flex_l	arm_add_l	arm_rot_l	elbow_flex_l	pro_sup_l	wrist_flex_l	wrist_dev_l
     35.02750000	     -4.39457357	     -3.36247475	      8.19627824	      0.89875601	      0.92013820	      0.47178467	     -0.63746384	      0.76910012	    -14.37614334	     17.17770210	     17.17770210	     19.33674559	     -1.54809507	     -1.03151865	     25.87533335	     -4.47166132	      6.02243291	     25.65313406	     25.65313406	      6.83019149	    -10.82812039	      2.24128637	     -6.91194620	      2.15517034	      3.51217707	     59.26153365	    -17.11936055	     -4.22048945	     76.04731682	     44.96132069	      0.00000000	      0.00000000	     -8.43744948	    -10.16619746	     22.02820488	     22.76979166	     43.13858514	      0.00000000	      0.00000000
     35.05171429	     -4.50187120	     -3.37629502	      7.71232932	      0.90015618	      0.92051020	      0.46724422	     -0.93462079	      0.39870778	    -14.14791029	     17.20336521	     17.20336521	     19.11554592	     -1.20246949	     -1.03803161	     25.63860902	     -4.30339885	      5.77873029	     26.04787306	     26.04787306	      7.34216510	    -11.27882766	      2.16770332	     -6.89225885	      2.23787459	      3.57437777	     58.70732341	    -16.94033470	     -4.14861576	     75.71033470	     44.96914836	      0.00000000	      0.00000000	     -7.97408544	    -10.30182606	     21.97206290	     22.92196731	     43.16408287	      0.00000000	      0.00000000
     35.07592857	     -4.63957468	     -3.37332750	      7.25028454	      0.90131898	      0.92090868	      0.46255643	     -1.22111898	     -0.09658679	    -14.47357599	     17.18246965	     17.18246965	     18.84413381	      0.00806708	     -1.47811101	     25.41392139	     -4.06365210	      5.63949342	     26.39521619	     26.39521619	      8.05377673	    -11.77806880	      2.82154544	     -6.83842134	      2.31581656	      3.97383982	     58.19426505	    -17.24807623	     -4.44231879	     74.22332800	     45.03446140	      0.00000000	      0.00000000	     -7.30164210	    -10.48316450	     21.73370061	     23.31393854	     43.25785784	      0.00000000	      0.00000000
     35.10014286	     -4.78738755	     -3.33674969	      6.77175207	      0.90230081	      0.92128497	      0.45792578	     -1.41141695	     -0.62818436	    -14.64170049	     17.27654040	     17.27654040	     18.45990438	      0.90892360	     -2.16224117	     25.19661244	     -3.83819491	      5.31003512	     26.73696454	     26.73696454	      8.94546946	    -11.96802070	      3.78465393	     -6.81783489	      2.39394798	      3.91999312	     57.66622330	    -16.94341678	     -4.68155322	     72.67214651	     45.10410373	      0.00000000	      0.00000000	     -6.84290405	    -10.62566166	     21.35056930	     23.64767777	     43.40436306	      0.00000000	      0.00000000
     35.12435714	     -4.95171490	     -3.38491544	      6.31344015	      0.90315641	      0.92167668	      0.45338129	     -1.55007545	     -0.97618541	    -14.40019828	     17.35257237	     17.35257237	     18.16822614	      1.16126365	     -2.16492260	     24.93336747	     -3.71213154	      4.96577416	     26.87738194	     26.87738194	      9.34313219	    -12.22300413	      3.73787167	     -6.80560881	      2.61250336	      3.82470171	     56.63562458	    -16.72654664	     -4.58638381	     72.15949616	     45.11424550	      0.00000000	      0.00000000	     -6.19740132	    -10.78782173	     21.26540563	     23.87611154	     43.43616091	      0.00000000	      0.00000000
     35.14857143	     -5.15079173	     -3.33160353	      5.81121677	      0.90384520	      0.92209794	      0.44884927	     -1.59491654	     -1.53628686	    -14.53202913	     17.53330300	     17.53330300	     17.82089292	      2.00269783	     -2.64523759	     24.63400157	     -3.51219477	      4.47809322	     26.90184786	     26.90184786	      9.90233793	    -12.26450538	      4.12425588	     -6.71994647	      2.65059796	      4.20787261	     55.49661296	    -17.13794768	     -4.99822360	     70.18882399	     45.19522882	      0.00000000	      0.00000000	     -5.37945409	    -10.99196139	     20.87451794	     24.44731769	     43.55288180	      0.00000000	      0.00000000
     35.17278571	     -5.30200361	     -3.35988147	      5.33401738	      0.90448812	      0.92254284	      0.44441087	     -1.66784348	     -1.93087671	    -14.35384138	     17.69546693	     17.69546693	     17.49107817	      2.31137427	     -2.73092410	     24.30895766	     -3.37887178	      4.08761982	     26.92697907	     26.92697907	     10.29981768	    -12.44750177	      4.15018350	     -6.73382123	      2.83270982	      4.04287697	     53.90520088	    -16.89932565	     -4.95635262	     69.24863606	     45.21925985	      0.00000000	      0.00000000	     -4.67551749	    -11.16260063	     20.72711811	     24.75231308	     43.59881120	      0.00000000	      0.00000000
     35.19700000	     -5.47046210	     -3.27800162	      4.83324426	      0.90505994	      0.92301612	      0.43989635	     -1.61195076	     -2.54511103	    -14.41692537	     18.07714708	     18.07714708	     17.12673537	      3.00608892	     -3.27897265	     23.93534049	     -3.14327794	      3.56775218	     26.85042165	     26.85042165	     10.76711360	    -12.50949260	      4.53888541	     -6.64559299	      2.93317794	      4.32503940	     52.30067692	    -17.12586479	     -5.45745202	     66.82754397	     45.31540637	      0.00000000	      0.00000000	     -3.71870634	    -11.34646893	     20.24028827	     25.45803832	     43.72865055	      0.00000000	      0.00000000
     35.22121429	     -5.50597437	     -3.40232901	      4.37559431	      0.90552952	      0.92355891	      0.43560217	     -1.68848657	     -2.82912593	    -14.13512955	     18.38031370	     18.38031370	     16.79790245	      3.22558912	     -3.32481739	     23.53093370	     -3.11386172	      3.25252683	     26.89140059	     26.89140059	     11.06659049	    -12.73106198	      4.52897209	     -6.82756132	      3.31712703	      3.91641890	     50.32593974	    -16.66404192	     -5.30774162	     65.95456482	     45.33037406	      0.00000000	      0.00000000	     -2.78772124	    -11.43757040	     20.13856771	     25.81370047	     43.76451537	      0.00000000	      0.00000000
     35.24542857	     -5.65939576	     -3.23292499	      3.84958787	      0.90603292	      0.92387995	      0.43119686	     -1.41717938	     -3.58622840	    -14.03212387	     19.14827368	     19.14827368	     16.42328440	      3.68804723	     -4.16716278	     23.13255613	     -2.75694532	      2.81446646	     26.79613340	     26.79613340	     11.52891234	    -12.91690335	      5.00561545	     -6.64616880	      3.30902949	      4.36174699	     48.08012814	    -16.95894586	     -6.05932994	     62.45793602	     45.46953139	      0.00000000	      0.00000000	     -1.65929053	    -11.61881563	     19.46541603	     26.74681424	     43.92601231	      0.00000000	      0.00000000
     35.26964286	     -5.74575055	     -3.17495719	      3.35520337	      0.90649042	      0.92419323	      0.42693506	     -1.14726992	     -4.16908592	    -13.68955817	     19.98110875	     19.98110875	     16.04424429	      3.74759593	     -4.77530103	     22.71375219	     -2.51625147	      2.45357415	     26.73468260	     26.73468260	     11.89313330	    -13.14877244	      5.25114469	     -6.62496237	      3.47686112	      4.24111553	     45.50108807	    -16.67757327	     -6.30178570	     60.07081183	     45.54867984	      0.00000000	      0.00000000	     -0.53486730	    -11.73441144	     19.03825975	     27.42096949	     44.03108201	      0.00000000	      0.00000000
     35.29385714	     -5.73840905	     -3.15959452	      2.87047722	      0.90684366	      0.92430838	      0.42271396	     -0.75423303	     -4.74803199	    -13.22766925	     21.20497978	     21.20497978	     15.61112844	      3.66807430	     -5.73491518	     22.31234910	     -2.29173419	      2.20775740	     26.86731123	     26.86731123	     12.30986418	    -13.56146832	      5.50502159	     -6.68749554	      3.71767088	      4.25703755	     42.77061612	    -16.51454998	     -6.65742135	     57.21083836	     45.64802850	      0.00000000	      0.00000000	      0.77375440	    -11.79965477	     18.56931773	     28.19393142	     44.14413179	      0.00000000	      0.00000000
     35.31807143	     -5.64601967	     -3.16463369	      2.40221283	      0.90719110	      0.92430177	      0.41857062	     -0.41521912	     -5.26508562	    -12.62169970	     22.33011981	     22.33011981	     13.87594816	      2.80924189	    -10.24185701	     21.95240060	     -2.07539655	      2.02255972	     27.25926916	     27.25926916	     13.16880926	    -13.92234372	      6.65214055	     -6.78952292	      4.00432736	      3.49632293	     41.06028590	    -15.06829831	     -8.14762081	     51.74831899	     45.86599277	      0.00000000	      0.00000000	      1.68008583	    -11.80169759	     16.51121376	     29.11404169	     44.58676396	      0.00000000	      0.00000000
     35.34228571	     -5.56359835	     -3.14461460	      1.91334069	      0.90744372	      0.92398022	      0.41447678	      0.45383452	     -5.94039349	    -11.92039879	     24.55012434	     24.55012434	     13.39924489	      2.24344883	    -11.32728320	     21.56871271	     -1.82369480	      1.84905107	     27.54078758	     27.54078758	     13.56917667	    -14.48732029	      6.66159264	     -6.94480607	      4.26343701	      3.59966044	     37.62226587	    -15.13194549	     -8.19974052	     49.35479462	     45.93265600	      0.00000000	      0.00000000	      3.30706729	    -11.80402687	     16.20171369	     29.89125739	     44.66818533	      0.00000000	      0.00000000
     35.36650000	     -5.46843476	     -3.12687408	      1.40630129	      0.90752414	      0.92332915	      0.41047422	      1.66360689	     -6.62456643	    -10.98497359	     27.33765798	     27.33765798	     12.51716564	      1.15747422	    -13.23120186	     21.27358186	     -1.55009379	      1.77142193	     27.99277789	     27.99277789	     14.05013686	    -15.18752848	      6.77857325	     -7.08628041	      4.55221523	      3.79228836	     34.20188714	    -15.11726764	     -8.43095135	     46.34713217	     46.03029807	      0.00000000	      0.00000000	      5.07599832	    -11.78495882	     15.90863420	     30.70136472	     44.74794095	      0.00000000	      0.00000000
     35.39071429	     -5.23788634	     -3.16910035	      0.95179925	      0.90757755	      0.92256981	      0.40668174	      2.77722411	     -7.08709726	     -9.71398971	     29.91708886	     29.91708886	      9.34578939	     -1.89332940	    -20.66903375	     20.98080592	     -1.33386430	      1.75914892	     28.72890880	     28.72890880	     15.08295142	    -15.70646475	      7.94642066	     -7.31342787	      4.86726305	      3.37560638	     32.05535783	    -14.12181623	    -10.28365892	     40.36336810	     46.30250658	      0.00000000	      0.00000000	      6.77091584	    -11.84436866	     15.42683832	     31.16164409	     44.88574577	      0.00000000	      0.00000000
